<?xml version="1.0" encoding="utf-8"?>
<!-- Generator: Adobe Illustrator 16.0.0, SVG Export Plug-In . SVG Version: 6.00 Build 0)  -->
<!DOCTYPE svg PUBLIC "-//W3C//DTD SVG 1.1//EN" "http://www.w3.org/Graphics/SVG/1.1/DTD/svg11.dtd">
<svg version="1.1" id="Layer_1" xmlns="http://www.w3.org/2000/svg" xmlns:xlink="http://www.w3.org/1999/xlink" x="0px" y="0px"
	 width="255.468px" height="114.667px" viewBox="0 0 255.468 114.667" enable-background="new 0 0 255.468 114.667"
	 xml:space="preserve">
<g>
	<defs>
		<rect id="SVGID_1_" x="-16.198" y="-37.707" width="281.04" height="281.04"/>
	</defs>
	<clipPath id="SVGID_2_">
		<use xlink:href="#SVGID_1_"  overflow="visible"/>
	</clipPath>
	<g clip-path="url(#SVGID_2_)">
		<defs>
			<rect id="SVGID_3_" x="8.53" y="7.815" width="63.787" height="97.226"/>
		</defs>
		<clipPath id="SVGID_4_">
			<use xlink:href="#SVGID_3_"  overflow="visible"/>
		</clipPath>
		<path clip-path="url(#SVGID_4_)" fill="#D54061" d="M72.317,34.25V12.333c0-0.287-0.028-0.571-0.084-0.852
			c-0.056-0.281-0.139-0.554-0.249-0.819c-0.11-0.265-0.244-0.517-0.404-0.755c-0.159-0.238-0.34-0.459-0.543-0.662
			s-0.423-0.384-0.662-0.543c-0.239-0.159-0.49-0.294-0.755-0.404c-0.265-0.109-0.538-0.192-0.819-0.249
			c-0.281-0.056-0.565-0.084-0.852-0.084H46.034c-0.287,0-0.571,0.028-0.852,0.084c-0.281,0.056-0.554,0.139-0.819,0.249
			c-0.265,0.11-0.517,0.245-0.755,0.404s-0.459,0.34-0.662,0.543s-0.384,0.423-0.543,0.662c-0.16,0.239-0.294,0.49-0.404,0.755
			c-0.11,0.265-0.192,0.538-0.249,0.819c-0.056,0.281-0.084,0.565-0.084,0.852v20.673c-1.066,4.181-3.916,7.031-8.097,8.097H12.897
			c-0.287,0-0.571,0.028-0.852,0.084c-0.281,0.056-0.554,0.139-0.819,0.249c-0.265,0.109-0.517,0.244-0.755,0.403
			s-0.459,0.34-0.662,0.543c-0.203,0.203-0.384,0.423-0.543,0.662c-0.159,0.238-0.294,0.49-0.403,0.755
			c-0.11,0.265-0.193,0.538-0.249,0.819C8.558,44.9,8.53,45.184,8.53,45.471v21.916c0,0.287,0.028,0.571,0.084,0.852
			c0.056,0.281,0.139,0.554,0.249,0.819c0.109,0.265,0.244,0.517,0.403,0.755c0.16,0.239,0.34,0.459,0.543,0.662
			c0.203,0.203,0.423,0.384,0.662,0.543s0.49,0.294,0.755,0.403c0.265,0.11,0.538,0.193,0.819,0.249
			c0.281,0.056,0.565,0.084,0.852,0.084h20.672c4.182,1.066,7.031,3.916,8.097,8.097v20.673c0,0.287,0.028,0.571,0.084,0.852
			c0.056,0.281,0.139,0.554,0.249,0.819c0.11,0.265,0.244,0.517,0.404,0.755c0.159,0.238,0.34,0.459,0.543,0.661
			c0.203,0.203,0.423,0.384,0.662,0.544c0.238,0.159,0.49,0.294,0.755,0.403c0.265,0.109,0.538,0.192,0.819,0.248
			c0.281,0.057,0.565,0.084,0.852,0.084H67.95c0.287,0,0.571-0.027,0.852-0.084c0.281-0.056,0.554-0.139,0.819-0.248
			c0.265-0.109,0.516-0.244,0.755-0.403c0.238-0.159,0.459-0.341,0.662-0.544c0.203-0.202,0.384-0.423,0.543-0.661
			c0.16-0.239,0.294-0.49,0.404-0.755c0.11-0.265,0.192-0.538,0.249-0.819c0.056-0.281,0.084-0.565,0.084-0.852V78.607
			c0-0.287-0.028-0.57-0.084-0.852s-0.139-0.554-0.249-0.819s-0.244-0.516-0.404-0.754c-0.159-0.238-0.34-0.459-0.543-0.662
			s-0.423-0.383-0.662-0.542s-0.49-0.293-0.755-0.403c-0.265-0.109-0.538-0.192-0.819-0.248c-0.281-0.056-0.565-0.084-0.852-0.084
			H47.277c-4.185-1.066-7.034-3.916-8.1-8.1V46.714c1.066-4.184,3.916-7.034,8.1-8.1H67.95c0.287,0,0.57-0.028,0.852-0.084
			c0.281-0.056,0.554-0.139,0.819-0.248c0.265-0.11,0.517-0.244,0.755-0.403s0.459-0.34,0.662-0.542s0.384-0.423,0.543-0.662
			c0.16-0.238,0.294-0.49,0.404-0.754s0.193-0.538,0.249-0.819S72.316,34.536,72.317,34.25z"/>
	</g>
	<g clip-path="url(#SVGID_2_)">
		<defs>
			<rect id="SVGID_5_" x="44.779" y="42.66" width="28.943" height="28.943"/>
		</defs>
		<clipPath id="SVGID_6_">
			<use xlink:href="#SVGID_5_"  overflow="visible"/>
		</clipPath>
		<path clip-path="url(#SVGID_6_)" fill="#309343" d="M73.722,57.131c0,0.95-0.093,1.892-0.278,2.823
			c-0.186,0.932-0.46,1.837-0.824,2.715s-0.81,1.712-1.337,2.502s-1.127,1.521-1.8,2.193c-0.672,0.672-1.403,1.272-2.193,1.8
			s-1.624,0.974-2.502,1.337s-1.783,0.638-2.714,0.823c-0.932,0.186-1.873,0.278-2.824,0.278c-0.95,0-1.891-0.093-2.823-0.278
			c-0.932-0.185-1.836-0.459-2.714-0.823S52,69.691,51.21,69.164s-1.521-1.128-2.193-1.8c-0.672-0.672-1.272-1.403-1.8-2.193
			s-0.974-1.624-1.337-2.502s-0.638-1.783-0.824-2.715c-0.185-0.932-0.278-1.873-0.278-2.823s0.093-1.891,0.278-2.823
			c0.186-0.932,0.46-1.837,0.824-2.715c0.364-0.877,0.81-1.711,1.337-2.502c0.528-0.79,1.127-1.521,1.8-2.193
			c0.672-0.672,1.403-1.271,2.193-1.8c0.79-0.528,1.624-0.974,2.502-1.337c0.878-0.364,1.783-0.638,2.714-0.824
			c0.932-0.186,1.873-0.278,2.823-0.278c0.951,0,1.892,0.092,2.824,0.278c0.932,0.186,1.836,0.46,2.714,0.824
			c0.878,0.363,1.712,0.809,2.502,1.337c0.79,0.528,1.521,1.128,2.193,1.8c0.672,0.672,1.272,1.403,1.8,2.193
			c0.528,0.791,0.974,1.625,1.337,2.502c0.364,0.878,0.638,1.783,0.824,2.715C73.629,55.24,73.722,56.181,73.722,57.131z"/>
	</g>
	<g clip-path="url(#SVGID_2_)">
		<defs>
			<rect id="SVGID_7_" x="-16.198" y="-37.707" width="281" height="281"/>
		</defs>
		<clipPath id="SVGID_8_">
			<use xlink:href="#SVGID_7_"  overflow="visible"/>
		</clipPath>
		<rect x="79.047" y="38.667" clip-path="url(#SVGID_8_)" fill="none" width="1.816" height="36"/>
	</g>
	<g display="none" clip-path="url(#SVGID_2_)">
		<defs>
			<rect id="SVGID_9_" x="-16.198" y="-37.707" width="281" height="281"/>
		</defs>
		<clipPath id="SVGID_10_" display="inline">
			<use xlink:href="#SVGID_9_"  overflow="visible"/>
		</clipPath>
		<g display="inline" clip-path="url(#SVGID_10_)">
			<text transform="matrix(1 -0.0037 0.0037 1 218.7246 53.3091)" font-family="'AvenirLTStd-Black'" font-size="3.372">T</text>
		</g>
		<g display="inline" clip-path="url(#SVGID_10_)">
			<text transform="matrix(1 -0.0037 0.0037 1 220.6602 53.3018)" font-family="'AvenirLTStd-Black'" font-size="3.372">M</text>
		</g>
	</g>
</g>
<rect x="79.047" y="38.667" fill="#FF8500" width="2.042" height="36"/>
<g>
	<path fill="#309343" d="M233.728,63.541c0,1.04-0.18,1.957-0.537,2.751c-0.359,0.793-0.865,1.458-1.518,1.991
		c-0.654,0.534-1.43,0.934-2.32,1.201c-0.893,0.267-1.861,0.4-2.904,0.4c-0.629,0-1.23-0.051-1.803-0.154s-1.084-0.233-1.537-0.39
		c-0.451-0.157-0.83-0.318-1.131-0.482c-0.301-0.165-0.521-0.318-0.66-0.462c-0.139-0.144-0.246-0.37-0.32-0.678
		c-0.076-0.308-0.113-0.763-0.113-1.365c0-0.396,0.014-0.714,0.037-0.954c0.025-0.239,0.063-0.432,0.115-0.575
		c0.049-0.144,0.111-0.239,0.188-0.287c0.076-0.048,0.17-0.072,0.283-0.072c0.139,0,0.342,0.085,0.611,0.256
		c0.271,0.171,0.607,0.359,1.01,0.564c0.402,0.206,0.871,0.397,1.404,0.575c0.535,0.178,1.141,0.267,1.822,0.267
		c0.426,0,0.807-0.048,1.141-0.144c0.332-0.096,0.621-0.233,0.867-0.411c0.244-0.178,0.43-0.404,0.557-0.678
		c0.125-0.273,0.188-0.588,0.188-0.944c0-0.411-0.115-0.764-0.348-1.058c-0.234-0.294-0.543-0.551-0.926-0.77
		c-0.383-0.218-0.816-0.424-1.301-0.616s-0.98-0.403-1.49-0.636c-0.51-0.232-1.006-0.5-1.49-0.801
		c-0.484-0.301-0.916-0.67-1.301-1.108c-0.383-0.438-0.691-0.965-0.924-1.581c-0.232-0.616-0.35-1.354-0.35-2.217
		c0-0.875,0.158-1.68,0.473-2.412s0.766-1.358,1.357-1.878c0.59-0.52,1.311-0.924,2.16-1.211c0.848-0.288,1.801-0.431,2.857-0.431
		c0.527,0,1.039,0.042,1.535,0.123c0.498,0.083,0.947,0.185,1.35,0.308s0.74,0.257,1.018,0.401c0.277,0.143,0.475,0.267,0.596,0.369
		c0.119,0.103,0.203,0.205,0.254,0.308c0.049,0.103,0.088,0.227,0.113,0.37c0.025,0.143,0.047,0.321,0.064,0.534
		c0.02,0.212,0.029,0.476,0.029,0.79c0,0.37-0.01,0.67-0.029,0.903c-0.018,0.233-0.049,0.417-0.094,0.554
		c-0.043,0.137-0.104,0.229-0.178,0.277c-0.076,0.048-0.164,0.072-0.266,0.072c-0.113,0-0.289-0.072-0.527-0.216
		c-0.24-0.143-0.539-0.297-0.896-0.462c-0.357-0.164-0.773-0.318-1.244-0.462c-0.471-0.143-1.008-0.215-1.613-0.215
		c-0.428,0-0.797,0.047-1.111,0.143c-0.314,0.096-0.572,0.233-0.773,0.411s-0.352,0.387-0.453,0.626c-0.1,0.24-0.15,0.496-0.15,0.77
		c0,0.424,0.119,0.78,0.357,1.067c0.24,0.287,0.553,0.54,0.943,0.759s0.834,0.424,1.33,0.616s1,0.401,1.508,0.626
		c0.51,0.226,1.012,0.489,1.51,0.79c0.496,0.301,0.939,0.671,1.328,1.109c0.391,0.438,0.705,0.961,0.945,1.571
		C233.608,61.984,233.728,62.706,233.728,63.541z M233.124,63.541c0-0.745-0.104-1.381-0.311-1.908
		c-0.209-0.534-0.482-0.992-0.82-1.371c-0.35-0.392-0.746-0.722-1.191-0.992c-0.475-0.289-0.955-0.54-1.441-0.756
		c-0.5-0.222-0.996-0.427-1.484-0.616c-0.521-0.201-0.99-0.418-1.404-0.651c-0.453-0.256-0.824-0.556-1.113-0.902
		c-0.344-0.413-0.514-0.916-0.514-1.508c0-0.37,0.068-0.717,0.205-1.043c0.141-0.333,0.348-0.621,0.621-0.863
		c0.266-0.235,0.596-0.413,0.99-0.533c0.367-0.112,0.793-0.168,1.275-0.168c0.66,0,1.252,0.08,1.775,0.24
		c0.496,0.151,0.936,0.314,1.316,0.489c0.379,0.173,0.697,0.337,0.955,0.493c0.146,0.089,0.225,0.133,0.234,0.133
		c-0.008,0-0.021,0.006-0.039,0.018c-0.053,0.033-0.082,0.058-0.086,0.073c0.025-0.085,0.049-0.217,0.063-0.395
		c0.018-0.213,0.025-0.496,0.025-0.846c0-0.293-0.008-0.536-0.025-0.727c-0.018-0.192-0.037-0.35-0.059-0.474
		c-0.014-0.079-0.031-0.139-0.053-0.183c-0.01-0.022-0.043-0.056-0.096-0.102c-0.084-0.072-0.244-0.169-0.48-0.292
		c-0.244-0.128-0.553-0.248-0.922-0.361c-0.377-0.115-0.803-0.213-1.275-0.291c-0.467-0.077-0.949-0.116-1.445-0.116
		c-0.996,0-1.889,0.134-2.678,0.402c-0.775,0.262-1.43,0.627-1.961,1.095c-0.518,0.457-0.916,1.005-1.189,1.646
		c-0.277,0.644-0.416,1.356-0.416,2.134c0,0.776,0.102,1.432,0.305,1.968c0.203,0.54,0.471,0.999,0.803,1.377
		c0.344,0.392,0.73,0.722,1.164,0.991c0.463,0.288,0.938,0.543,1.424,0.766c0.5,0.229,0.988,0.437,1.463,0.625
		c0.508,0.202,0.967,0.419,1.375,0.651c0.451,0.258,0.818,0.566,1.1,0.923c0.33,0.417,0.496,0.913,0.496,1.486
		c0,0.459-0.084,0.872-0.252,1.238c-0.174,0.378-0.428,0.688-0.762,0.931c-0.301,0.218-0.65,0.384-1.049,0.499
		c-0.383,0.11-0.814,0.166-1.293,0.166c-0.74,0-1.406-0.099-1.998-0.296c-0.563-0.187-1.057-0.39-1.484-0.608
		c-0.418-0.213-0.771-0.411-1.057-0.592c-0.176-0.112-0.279-0.167-0.309-0.167l0.021-0.018c0.047-0.03,0.07-0.045,0.07-0.046
		c-0.031,0.092-0.059,0.231-0.078,0.416c-0.021,0.214-0.033,0.508-0.033,0.879c0,0.545,0.031,0.944,0.092,1.196
		c0.047,0.189,0.1,0.313,0.156,0.372c0.094,0.098,0.264,0.214,0.512,0.35c0.275,0.149,0.623,0.297,1.047,0.444
		c0.424,0.148,0.908,0.271,1.451,0.368c0.539,0.097,1.105,0.145,1.703,0.145c0.988,0,1.904-0.125,2.744-0.376
		c0.818-0.245,1.525-0.609,2.117-1.093c0.576-0.471,1.023-1.057,1.338-1.756C232.966,65.3,233.124,64.479,233.124,63.541z
		 M234.331,63.541c0,1.142-0.199,2.155-0.6,3.04c-0.4,0.889-0.967,1.631-1.697,2.228c-0.715,0.583-1.557,1.02-2.523,1.308
		c-0.945,0.283-1.965,0.424-3.063,0.424c-0.662,0-1.295-0.054-1.9-0.163c-0.602-0.108-1.143-0.245-1.623-0.413
		c-0.48-0.167-0.887-0.341-1.217-0.52c-0.355-0.194-0.625-0.385-0.807-0.575c-0.221-0.229-0.383-0.557-0.488-0.983
		c-0.088-0.364-0.133-0.875-0.133-1.535c0-0.422,0.014-0.765,0.041-1.029c0.031-0.294,0.082-0.538,0.15-0.734
		c0.1-0.288,0.25-0.495,0.447-0.621c0.17-0.107,0.365-0.161,0.588-0.161c0.246,0,0.551,0.115,0.916,0.345
		c0.254,0.161,0.574,0.34,0.961,0.538c0.377,0.192,0.818,0.373,1.326,0.542c0.477,0.159,1.025,0.238,1.645,0.238
		c0.373,0,0.703-0.041,0.984-0.122c0.27-0.077,0.498-0.185,0.688-0.322c0.156-0.113,0.273-0.254,0.352-0.424
		c0.084-0.181,0.125-0.398,0.125-0.65c0-0.249-0.068-0.458-0.203-0.629c-0.182-0.231-0.432-0.436-0.746-0.617
		c-0.359-0.206-0.77-0.398-1.227-0.58c-0.494-0.195-1-0.411-1.518-0.648c-0.533-0.243-1.051-0.521-1.557-0.836
		c-0.535-0.333-1.016-0.741-1.438-1.225c-0.438-0.498-0.785-1.092-1.047-1.785c-0.262-0.696-0.395-1.518-0.395-2.467
		c0-0.974,0.176-1.87,0.529-2.69c0.354-0.824,0.861-1.527,1.525-2.111c0.65-0.573,1.438-1.015,2.359-1.328
		c0.906-0.307,1.918-0.46,3.037-0.46c0.557,0,1.1,0.043,1.627,0.131c0.521,0.086,0.994,0.194,1.42,0.325
		c0.436,0.133,0.809,0.28,1.115,0.439c0.318,0.165,0.555,0.314,0.709,0.447c0.186,0.159,0.324,0.33,0.414,0.514
		c0.078,0.162,0.135,0.346,0.172,0.556c0.029,0.163,0.053,0.361,0.074,0.593c0.02,0.233,0.031,0.518,0.031,0.854
		c0,0.389-0.01,0.709-0.031,0.961c-0.023,0.288-0.064,0.525-0.125,0.713c-0.092,0.29-0.24,0.499-0.445,0.628
		c-0.17,0.107-0.359,0.161-0.568,0.161c-0.217,0-0.49-0.099-0.82-0.297c-0.219-0.132-0.498-0.276-0.838-0.431
		c-0.334-0.154-0.727-0.298-1.172-0.435c-0.418-0.127-0.902-0.191-1.451-0.191c-0.371,0-0.688,0.04-0.949,0.119
		c-0.234,0.071-0.42,0.167-0.557,0.288c-0.127,0.113-0.221,0.243-0.283,0.389c-0.064,0.153-0.096,0.318-0.096,0.497
		c0,0.255,0.066,0.464,0.203,0.626c0.189,0.228,0.445,0.434,0.771,0.617c0.365,0.206,0.783,0.398,1.254,0.58
		c0.506,0.195,1.018,0.408,1.535,0.637c0.531,0.236,1.057,0.511,1.574,0.825c0.549,0.333,1.039,0.741,1.471,1.225
		c0.441,0.496,0.795,1.086,1.063,1.77C234.194,61.809,234.331,62.617,234.331,63.541z M217.226,68.714
		c0,0.137-0.037,0.257-0.113,0.359s-0.201,0.188-0.377,0.257c-0.176,0.068-0.418,0.12-0.727,0.154s-0.688,0.051-1.141,0.051
		c-0.465,0-0.852-0.017-1.16-0.051s-0.551-0.085-0.727-0.154c-0.176-0.069-0.301-0.154-0.377-0.257s-0.113-0.222-0.113-0.359V58.265
		c0-0.89-0.061-1.588-0.18-2.094c-0.119-0.507-0.291-0.941-0.518-1.304c-0.227-0.363-0.52-0.643-0.877-0.842
		c-0.357-0.198-0.777-0.297-1.254-0.297c-0.604,0-1.215,0.24-1.83,0.719s-1.256,1.176-1.924,2.094v12.173
		c0,0.137-0.037,0.257-0.113,0.359c-0.074,0.103-0.203,0.188-0.387,0.257c-0.182,0.068-0.424,0.12-0.725,0.154
		c-0.303,0.034-0.686,0.051-1.15,0.051c-0.467,0-0.85-0.017-1.152-0.051c-0.301-0.034-0.543-0.085-0.727-0.154
		c-0.182-0.069-0.311-0.154-0.385-0.257c-0.076-0.103-0.113-0.222-0.113-0.359V50.402c0-0.137,0.031-0.256,0.094-0.358
		c0.063-0.104,0.178-0.189,0.34-0.257c0.162-0.068,0.373-0.119,0.631-0.153s0.582-0.051,0.971-0.051
		c0.404,0,0.736,0.017,1.002,0.051c0.264,0.034,0.467,0.085,0.611,0.153c0.146,0.068,0.248,0.154,0.311,0.257
		c0.064,0.103,0.096,0.222,0.096,0.358v2.115c0.93-1.095,1.877-1.916,2.838-2.463c0.963-0.547,1.965-0.821,3.008-0.821
		c1.145,0,2.109,0.206,2.896,0.616c0.785,0.411,1.42,0.968,1.904,1.673c0.482,0.705,0.832,1.529,1.047,2.473
		c0.213,0.945,0.32,2.081,0.32,3.408V68.714z M216.622,68.714V57.402c0-1.274-0.102-2.357-0.303-3.25
		c-0.195-0.858-0.51-1.604-0.945-2.238c-0.424-0.619-0.986-1.11-1.682-1.474c-0.703-0.368-1.582-0.552-2.635-0.552
		c-0.943,0-1.854,0.25-2.729,0.747c-0.9,0.513-1.791,1.289-2.674,2.328l-1.047,1.231v-3.792l0.008,0.005l-0.051-0.018
		c-0.09-0.043-0.238-0.078-0.443-0.104c-0.24-0.031-0.551-0.046-0.93-0.046c-0.363,0-0.664,0.015-0.896,0.046
		c-0.209,0.028-0.371,0.066-0.488,0.115l-0.055,0.007l0.008-0.005v18.312c0-0.016-0.008-0.034-0.02-0.05
		c0.002,0.003,0.041,0.019,0.111,0.046c0.139,0.052,0.338,0.092,0.594,0.121c0.281,0.032,0.643,0.048,1.088,0.048
		c0.443,0,0.805-0.016,1.088-0.048c0.254-0.029,0.453-0.069,0.592-0.121c0.07-0.027,0.109-0.042,0.111-0.046
		c-0.012,0.017-0.02,0.034-0.02,0.05V56.312l0.131-0.179c0.701-0.965,1.383-1.706,2.045-2.221c0.723-0.56,1.449-0.841,2.182-0.841
		c0.574,0,1.082,0.124,1.527,0.37c0.451,0.249,0.818,0.602,1.102,1.058c0.266,0.425,0.467,0.929,0.605,1.509
		c0.131,0.561,0.197,1.313,0.197,2.258v10.449c0-0.016-0.006-0.034-0.02-0.05c0.004,0.005,0.041,0.021,0.109,0.048
		c0.131,0.05,0.324,0.09,0.584,0.119c0.289,0.032,0.654,0.048,1.1,0.048c0.432,0,0.791-0.016,1.08-0.048
		c0.26-0.029,0.453-0.069,0.584-0.119c0.068-0.027,0.105-0.043,0.107-0.048C216.628,68.68,216.622,68.698,216.622,68.714
		L216.622,68.714z M217.829,68.714c0,0.291-0.082,0.547-0.246,0.77c-0.146,0.2-0.361,0.355-0.645,0.465
		c-0.223,0.086-0.512,0.149-0.869,0.188c-0.328,0.037-0.729,0.055-1.201,0.055c-0.486,0-0.893-0.019-1.221-0.055
		c-0.357-0.039-0.646-0.102-0.869-0.188c-0.283-0.11-0.498-0.265-0.645-0.465c-0.164-0.223-0.246-0.479-0.246-0.77V58.265
		c0-0.834-0.053-1.478-0.16-1.931c-0.102-0.433-0.246-0.798-0.434-1.098c-0.168-0.27-0.385-0.479-0.65-0.626
		c-0.273-0.15-0.6-0.226-0.98-0.226c-0.475,0-0.969,0.199-1.479,0.596c-0.57,0.443-1.172,1.099-1.803,1.967l-0.473-0.408h0.604
		v12.173c0,0.291-0.082,0.547-0.244,0.77c-0.148,0.202-0.369,0.357-0.662,0.467c-0.225,0.085-0.512,0.147-0.861,0.186
		c-0.32,0.037-0.727,0.055-1.211,0.055c-0.486,0-0.893-0.019-1.215-0.055c-0.348-0.039-0.635-0.101-0.859-0.186
		c-0.291-0.11-0.514-0.266-0.66-0.467c-0.164-0.223-0.246-0.479-0.246-0.77V50.402c0-0.269,0.066-0.51,0.195-0.723
		c0.135-0.219,0.342-0.387,0.625-0.506c0.209-0.087,0.469-0.152,0.775-0.192c0.281-0.037,0.631-0.056,1.043-0.056
		c0.428,0,0.785,0.019,1.072,0.056c0.322,0.042,0.584,0.109,0.781,0.204c0.254,0.12,0.445,0.285,0.574,0.495
		c0.131,0.213,0.195,0.454,0.195,0.723v2.115h-0.604l-0.443-0.446c0.977-1.15,1.979-2.017,3.002-2.6
		c1.049-0.598,2.145-0.896,3.287-0.896c1.236,0,2.289,0.227,3.156,0.68c0.875,0.458,1.584,1.081,2.127,1.873
		c0.533,0.776,0.916,1.679,1.15,2.709c0.225,0.997,0.338,2.185,0.338,3.565V68.714L217.829,68.714z M192.521,59.579
		c0-0.903-0.066-1.735-0.199-2.495c-0.131-0.759-0.355-1.42-0.67-1.981c-0.314-0.562-0.732-0.999-1.254-1.314
		c-0.521-0.314-1.178-0.472-1.971-0.472c-0.703,0-1.32,0.14-1.848,0.421c-0.529,0.281-0.963,0.691-1.301,1.231
		c-0.34,0.541-0.596,1.191-0.766,1.95c-0.17,0.76-0.254,1.625-0.254,2.597c0,0.903,0.07,1.735,0.207,2.495
		c0.139,0.759,0.361,1.42,0.67,1.98c0.309,0.562,0.727,0.996,1.254,1.304c0.527,0.308,1.182,0.462,1.961,0.462
		c0.717,0,1.34-0.141,1.867-0.421c0.529-0.281,0.963-0.688,1.303-1.222c0.34-0.534,0.59-1.18,0.754-1.94
		S192.521,60.55,192.521,59.579z M197.403,59.374c0,1.56-0.188,2.983-0.564,4.27c-0.377,1.286-0.951,2.395-1.717,3.326
		c-0.768,0.931-1.729,1.649-2.887,2.155c-1.154,0.507-2.508,0.76-4.055,0.76c-1.496,0-2.797-0.226-3.902-0.677
		c-1.107-0.452-2.025-1.109-2.754-1.971c-0.729-0.862-1.27-1.923-1.623-3.182c-0.352-1.259-0.527-2.696-0.527-4.312
		c0-1.56,0.193-2.986,0.576-4.28s0.957-2.402,1.725-3.326s1.727-1.639,2.877-2.145c1.148-0.507,2.498-0.76,4.045-0.76
		c1.51,0,2.816,0.223,3.924,0.667c1.105,0.445,2.02,1.098,2.742,1.96s1.262,1.923,1.613,3.182
		C197.228,56.301,197.403,57.745,197.403,59.374z M193.122,59.579c0,1.022-0.086,1.938-0.26,2.747
		c-0.182,0.841-0.463,1.562-0.846,2.164c-0.4,0.628-0.91,1.107-1.533,1.438c-0.611,0.325-1.322,0.487-2.133,0.487
		c-0.879,0-1.629-0.18-2.246-0.54c-0.625-0.365-1.121-0.881-1.486-1.546c-0.344-0.626-0.592-1.356-0.744-2.19
		c-0.145-0.802-0.219-1.676-0.219-2.623c0-1.024,0.092-1.941,0.271-2.752c0.188-0.837,0.471-1.559,0.852-2.166
		c0.4-0.636,0.912-1.12,1.535-1.451c0.611-0.325,1.316-0.488,2.113-0.488c0.896,0,1.65,0.185,2.264,0.555
		c0.615,0.371,1.107,0.887,1.477,1.546c0.354,0.629,0.602,1.363,0.746,2.201C193.054,57.763,193.122,58.634,193.122,59.579z
		 M191.915,59.579c0-0.863-0.063-1.653-0.186-2.372c-0.119-0.682-0.316-1.269-0.594-1.762c-0.258-0.462-0.602-0.822-1.031-1.081
		c-0.43-0.26-0.988-0.39-1.678-0.39c-0.611,0-1.139,0.119-1.584,0.354c-0.432,0.23-0.787,0.567-1.066,1.012
		c-0.299,0.475-0.525,1.054-0.676,1.735c-0.16,0.708-0.238,1.522-0.238,2.441c0,0.86,0.066,1.649,0.195,2.367
		c0.125,0.685,0.324,1.275,0.596,1.771c0.252,0.458,0.592,0.812,1.021,1.062c0.439,0.256,0.998,0.384,1.676,0.384
		c0.625,0,1.158-0.118,1.604-0.354c0.434-0.231,0.789-0.565,1.07-1.005c0.295-0.466,0.516-1.038,0.662-1.716
		C191.839,61.316,191.915,60.5,191.915,59.579z M196.8,59.374c0-1.563-0.166-2.944-0.5-4.14c-0.326-1.165-0.82-2.141-1.482-2.931
		c-0.656-0.784-1.492-1.379-2.508-1.787c-1.037-0.417-2.275-0.627-3.713-0.627c-1.469,0-2.742,0.238-3.818,0.712
		c-1.066,0.469-1.949,1.127-2.654,1.977c-0.711,0.854-1.244,1.884-1.6,3.087c-0.365,1.228-0.547,2.587-0.547,4.078
		c0,1.55,0.168,2.923,0.502,4.12c0.326,1.164,0.82,2.14,1.488,2.928c0.664,0.785,1.506,1.386,2.521,1.801
		c1.039,0.423,2.27,0.635,3.691,0.635c1.469,0,2.746-0.237,3.83-0.711c1.07-0.469,1.957-1.13,2.662-1.985
		c0.709-0.861,1.24-1.89,1.59-3.087C196.622,62.223,196.8,60.866,196.8,59.374z M198.007,59.374c0,1.628-0.197,3.118-0.594,4.47
		c-0.402,1.376-1.018,2.564-1.842,3.564c-0.828,1.006-1.865,1.782-3.109,2.327c-1.229,0.538-2.656,0.807-4.281,0.807
		c-1.568,0-2.939-0.239-4.115-0.719c-1.195-0.488-2.191-1.202-2.986-2.141c-0.791-0.936-1.375-2.081-1.754-3.436
		c-0.369-1.321-0.555-2.822-0.555-4.502c0-1.629,0.201-3.123,0.604-4.482c0.412-1.383,1.027-2.57,1.854-3.564
		c0.828-0.999,1.861-1.77,3.098-2.313c1.223-0.539,2.646-0.808,4.271-0.808c1.58,0,2.957,0.236,4.133,0.708
		c1.197,0.481,2.189,1.193,2.979,2.134c0.785,0.935,1.367,2.08,1.744,3.434C197.823,56.172,198.007,57.68,198.007,59.374z
		 M176.827,63.541c0,1.04-0.178,1.957-0.537,2.751c-0.357,0.793-0.863,1.458-1.518,1.991s-1.428,0.934-2.318,1.201
		c-0.895,0.267-1.861,0.4-2.904,0.4c-0.629,0-1.23-0.051-1.803-0.154s-1.084-0.233-1.537-0.39c-0.451-0.157-0.83-0.318-1.131-0.482
		c-0.301-0.165-0.521-0.318-0.66-0.462c-0.139-0.144-0.246-0.37-0.32-0.678c-0.076-0.308-0.113-0.763-0.113-1.365
		c0-0.396,0.012-0.714,0.037-0.954c0.025-0.239,0.063-0.432,0.113-0.575s0.113-0.239,0.189-0.287
		c0.074-0.048,0.168-0.072,0.281-0.072c0.139,0,0.344,0.085,0.613,0.256c0.271,0.171,0.607,0.359,1.01,0.564
		c0.402,0.206,0.871,0.397,1.404,0.575c0.535,0.178,1.141,0.267,1.82,0.267c0.428,0,0.809-0.048,1.141-0.144
		c0.334-0.096,0.623-0.233,0.869-0.411c0.244-0.178,0.43-0.404,0.555-0.678c0.127-0.273,0.189-0.588,0.189-0.944
		c0-0.411-0.115-0.764-0.35-1.058c-0.232-0.294-0.541-0.551-0.924-0.77c-0.383-0.218-0.816-0.424-1.301-0.616
		s-0.98-0.403-1.49-0.636c-0.51-0.232-1.006-0.5-1.49-0.801c-0.484-0.301-0.918-0.67-1.301-1.108s-0.691-0.965-0.926-1.581
		c-0.23-0.616-0.348-1.354-0.348-2.217c0-0.875,0.156-1.68,0.473-2.412c0.313-0.732,0.766-1.358,1.357-1.878
		c0.59-0.52,1.311-0.924,2.158-1.211c0.85-0.288,1.803-0.431,2.857-0.431c0.529,0,1.041,0.042,1.537,0.123
		c0.496,0.083,0.945,0.185,1.35,0.308c0.402,0.123,0.74,0.257,1.018,0.401c0.277,0.143,0.475,0.267,0.594,0.369
		s0.205,0.205,0.256,0.308c0.049,0.103,0.088,0.227,0.111,0.37c0.025,0.143,0.049,0.321,0.066,0.534
		c0.02,0.212,0.029,0.476,0.029,0.79c0,0.37-0.01,0.67-0.029,0.903c-0.018,0.233-0.049,0.417-0.094,0.554s-0.104,0.229-0.178,0.277
		c-0.076,0.048-0.164,0.072-0.266,0.072c-0.113,0-0.289-0.072-0.527-0.216c-0.24-0.143-0.539-0.297-0.896-0.462
		c-0.359-0.164-0.773-0.318-1.244-0.462c-0.473-0.143-1.01-0.215-1.613-0.215c-0.428,0-0.799,0.047-1.113,0.143
		c-0.313,0.096-0.57,0.233-0.771,0.411s-0.354,0.387-0.453,0.626c-0.1,0.24-0.152,0.496-0.152,0.77c0,0.424,0.119,0.78,0.359,1.067
		c0.238,0.287,0.553,0.54,0.943,0.759c0.389,0.219,0.832,0.424,1.33,0.616c0.496,0.191,0.998,0.401,1.508,0.626
		s1.012,0.489,1.51,0.79c0.496,0.301,0.939,0.671,1.328,1.109c0.391,0.438,0.705,0.961,0.943,1.571
		C176.708,61.984,176.827,62.706,176.827,63.541z M176.226,63.541c0-0.745-0.104-1.381-0.311-1.908
		c-0.209-0.534-0.484-0.992-0.822-1.371c-0.348-0.392-0.744-0.722-1.189-0.992c-0.475-0.289-0.957-0.54-1.441-0.756
		c-0.502-0.222-0.996-0.427-1.484-0.616c-0.521-0.201-0.99-0.418-1.404-0.651c-0.453-0.256-0.826-0.556-1.113-0.902
		c-0.344-0.413-0.514-0.916-0.514-1.508c0-0.37,0.068-0.717,0.205-1.043c0.141-0.333,0.346-0.621,0.621-0.863
		c0.266-0.235,0.596-0.413,0.99-0.533c0.367-0.112,0.793-0.168,1.275-0.168c0.658,0,1.25,0.08,1.775,0.24
		c0.496,0.151,0.936,0.314,1.316,0.489c0.379,0.173,0.697,0.337,0.953,0.493c0.148,0.089,0.227,0.133,0.236,0.133
		c-0.008,0-0.021,0.006-0.039,0.018c-0.053,0.033-0.082,0.058-0.088,0.073c0.027-0.085,0.049-0.217,0.064-0.395
		c0.016-0.213,0.025-0.496,0.025-0.846c0-0.293-0.01-0.536-0.025-0.727c-0.018-0.192-0.037-0.35-0.059-0.474
		c-0.014-0.079-0.031-0.139-0.053-0.183c-0.01-0.022-0.043-0.056-0.096-0.102c-0.086-0.072-0.244-0.169-0.48-0.292
		c-0.246-0.128-0.553-0.248-0.922-0.361c-0.379-0.115-0.803-0.213-1.275-0.291c-0.467-0.077-0.949-0.116-1.447-0.116
		c-0.994,0-1.887,0.134-2.678,0.402c-0.775,0.262-1.428,0.627-1.959,1.095c-0.52,0.457-0.916,1.005-1.189,1.646
		c-0.277,0.644-0.416,1.356-0.416,2.134c0,0.776,0.102,1.432,0.303,1.968c0.205,0.54,0.473,0.999,0.805,1.377
		c0.342,0.392,0.73,0.722,1.164,0.991c0.461,0.288,0.938,0.543,1.422,0.766c0.5,0.229,0.988,0.437,1.463,0.625
		c0.51,0.202,0.969,0.419,1.377,0.651c0.451,0.258,0.818,0.566,1.1,0.923c0.33,0.417,0.496,0.913,0.496,1.486
		c0,0.459-0.084,0.872-0.254,1.238c-0.172,0.378-0.426,0.688-0.76,0.931c-0.301,0.218-0.65,0.384-1.049,0.499
		c-0.383,0.11-0.814,0.166-1.295,0.166c-0.738,0-1.404-0.099-1.996-0.296c-0.563-0.187-1.057-0.39-1.484-0.608
		c-0.42-0.213-0.771-0.411-1.057-0.592c-0.176-0.112-0.279-0.167-0.311-0.167l0.023-0.018c0.045-0.03,0.07-0.045,0.07-0.046
		c-0.031,0.092-0.059,0.231-0.078,0.416c-0.021,0.214-0.033,0.508-0.033,0.879c0,0.545,0.031,0.944,0.092,1.196
		c0.047,0.189,0.1,0.313,0.154,0.372c0.096,0.098,0.266,0.214,0.514,0.35c0.273,0.149,0.623,0.297,1.045,0.444
		c0.426,0.148,0.91,0.271,1.451,0.368c0.541,0.097,1.107,0.145,1.705,0.145c0.988,0,1.904-0.125,2.744-0.376
		c0.818-0.245,1.523-0.609,2.117-1.093c0.576-0.471,1.021-1.057,1.338-1.756C176.065,65.3,176.226,64.479,176.226,63.541z
		 M177.433,63.541c0,1.142-0.201,2.155-0.6,3.04c-0.402,0.889-0.967,1.631-1.697,2.228c-0.717,0.583-1.557,1.02-2.523,1.308
		c-0.945,0.283-1.965,0.424-3.063,0.424c-0.664,0-1.295-0.054-1.9-0.163c-0.602-0.108-1.143-0.245-1.623-0.413
		c-0.482-0.167-0.887-0.341-1.217-0.52c-0.357-0.194-0.625-0.385-0.807-0.575c-0.221-0.229-0.383-0.557-0.488-0.983
		c-0.088-0.364-0.133-0.875-0.133-1.535c0-0.422,0.014-0.765,0.041-1.029c0.031-0.294,0.08-0.538,0.148-0.734
		c0.102-0.288,0.252-0.495,0.449-0.621c0.17-0.107,0.365-0.161,0.586-0.161c0.248,0,0.553,0.115,0.916,0.345
		c0.256,0.161,0.576,0.34,0.963,0.538c0.377,0.192,0.818,0.373,1.324,0.542c0.479,0.159,1.025,0.238,1.645,0.238
		c0.375,0,0.705-0.041,0.986-0.122c0.27-0.077,0.498-0.185,0.688-0.322c0.156-0.113,0.273-0.254,0.352-0.424
		c0.084-0.181,0.125-0.398,0.125-0.65c0-0.249-0.068-0.458-0.203-0.629c-0.182-0.231-0.432-0.436-0.748-0.617
		c-0.359-0.206-0.768-0.398-1.227-0.58c-0.492-0.195-0.998-0.411-1.518-0.648c-0.531-0.243-1.051-0.521-1.555-0.836
		c-0.535-0.333-1.016-0.741-1.439-1.225c-0.436-0.498-0.783-1.092-1.045-1.785c-0.264-0.696-0.395-1.518-0.395-2.467
		c0-0.974,0.176-1.87,0.529-2.69c0.352-0.824,0.861-1.527,1.525-2.111c0.65-0.573,1.436-1.015,2.357-1.328
		c0.908-0.307,1.92-0.46,3.037-0.46c0.559,0,1.102,0.043,1.629,0.131c0.52,0.086,0.994,0.194,1.42,0.325
		c0.436,0.133,0.809,0.28,1.115,0.439c0.318,0.165,0.553,0.314,0.709,0.447c0.184,0.159,0.322,0.33,0.412,0.514
		c0.08,0.162,0.137,0.346,0.174,0.556c0.029,0.163,0.053,0.361,0.074,0.593c0.02,0.233,0.031,0.518,0.031,0.854
		c0,0.389-0.012,0.709-0.031,0.961c-0.023,0.288-0.064,0.525-0.127,0.713c-0.092,0.29-0.24,0.499-0.443,0.628
		c-0.17,0.107-0.359,0.161-0.568,0.161c-0.217,0-0.49-0.099-0.82-0.297c-0.219-0.132-0.498-0.276-0.838-0.431
		c-0.336-0.154-0.727-0.298-1.174-0.435c-0.418-0.127-0.9-0.191-1.449-0.191c-0.371,0-0.688,0.04-0.949,0.119
		c-0.234,0.071-0.42,0.167-0.557,0.288c-0.127,0.113-0.223,0.243-0.283,0.389c-0.064,0.153-0.096,0.318-0.096,0.497
		c0,0.255,0.066,0.464,0.201,0.626c0.189,0.228,0.447,0.434,0.773,0.617c0.365,0.206,0.783,0.398,1.254,0.58
		c0.506,0.195,1.016,0.408,1.535,0.637c0.531,0.236,1.057,0.511,1.574,0.825c0.549,0.333,1.039,0.741,1.469,1.225
		c0.443,0.496,0.797,1.086,1.064,1.77C177.296,61.809,177.433,62.617,177.433,63.541z M160.325,68.714
		c0,0.137-0.037,0.257-0.111,0.359c-0.076,0.103-0.201,0.188-0.379,0.257c-0.174,0.068-0.414,0.12-0.717,0.154
		c-0.301,0.034-0.684,0.051-1.15,0.051c-0.477,0-0.867-0.017-1.168-0.051s-0.545-0.085-0.727-0.154
		c-0.182-0.069-0.309-0.154-0.377-0.257c-0.07-0.103-0.104-0.222-0.104-0.359V57.854c0-0.616-0.053-1.177-0.16-1.683
		c-0.107-0.507-0.271-0.941-0.49-1.304c-0.221-0.363-0.498-0.643-0.83-0.842c-0.334-0.198-0.732-0.297-1.197-0.297
		c-0.566,0-1.139,0.24-1.717,0.719s-1.207,1.176-1.885,2.094v12.173c0,0.137-0.039,0.257-0.115,0.359
		c-0.074,0.103-0.203,0.188-0.385,0.257c-0.184,0.068-0.426,0.12-0.727,0.154s-0.68,0.051-1.133,0.051
		c-0.465,0-0.848-0.017-1.15-0.051c-0.301-0.034-0.543-0.085-0.727-0.154c-0.182-0.069-0.311-0.154-0.385-0.257
		c-0.076-0.103-0.113-0.222-0.113-0.359V57.854c0-0.616-0.055-1.177-0.16-1.683c-0.107-0.507-0.268-0.941-0.482-1.304
		c-0.213-0.363-0.488-0.643-0.828-0.842c-0.34-0.198-0.736-0.297-1.189-0.297c-0.578,0-1.156,0.24-1.734,0.719
		s-1.201,1.176-1.867,2.094v12.173c0,0.137-0.037,0.257-0.113,0.359s-0.205,0.188-0.387,0.257c-0.182,0.068-0.424,0.12-0.727,0.154
		c-0.301,0.034-0.686,0.051-1.148,0.051c-0.467,0-0.85-0.017-1.152-0.051c-0.301-0.034-0.543-0.085-0.725-0.154
		c-0.184-0.069-0.313-0.154-0.387-0.257c-0.076-0.103-0.115-0.222-0.115-0.359V50.402c0-0.137,0.033-0.256,0.096-0.358
		c0.063-0.104,0.176-0.189,0.34-0.257c0.162-0.068,0.373-0.119,0.631-0.153s0.582-0.051,0.973-0.051
		c0.402,0,0.734,0.017,0.998,0.051s0.469,0.085,0.613,0.153c0.145,0.068,0.248,0.154,0.311,0.257
		c0.064,0.103,0.096,0.222,0.096,0.358v2.115c0.93-1.095,1.857-1.916,2.781-2.463s1.889-0.821,2.895-0.821
		c0.691,0,1.314,0.079,1.867,0.236s1.047,0.383,1.48,0.678c0.434,0.294,0.809,0.646,1.123,1.057
		c0.314,0.411,0.578,0.869,0.791,1.376c0.502-0.589,0.996-1.095,1.48-1.519c0.484-0.425,0.963-0.77,1.434-1.037
		c0.471-0.267,0.943-0.465,1.414-0.596c0.473-0.129,0.953-0.195,1.443-0.195c1.119,0,2.063,0.206,2.828,0.616
		c0.768,0.411,1.387,0.968,1.857,1.673c0.473,0.705,0.809,1.529,1.01,2.473c0.201,0.945,0.301,1.944,0.301,2.997V68.714z
		 M159.724,68.714V56.992c0-1.003-0.096-1.953-0.287-2.849c-0.182-0.857-0.484-1.603-0.908-2.235
		c-0.414-0.617-0.959-1.107-1.637-1.47c-0.684-0.365-1.537-0.549-2.563-0.549c-0.441,0-0.871,0.059-1.295,0.175
		c-0.426,0.118-0.854,0.298-1.283,0.542c-0.438,0.247-0.881,0.568-1.334,0.965c-0.461,0.405-0.934,0.89-1.418,1.455l-0.613,0.719
		l-0.377-0.892c-0.191-0.454-0.426-0.864-0.707-1.229c-0.271-0.356-0.598-0.664-0.977-0.92c-0.383-0.259-0.82-0.459-1.314-0.599
		c-0.504-0.143-1.074-0.215-1.715-0.215c-0.902,0-1.771,0.248-2.607,0.742c-0.865,0.512-1.74,1.29-2.627,2.333l-1.045,1.231v-3.792
		l0.006,0.005l-0.049-0.018c-0.09-0.043-0.238-0.078-0.443-0.104c-0.242-0.031-0.549-0.046-0.928-0.046
		c-0.367,0-0.666,0.015-0.898,0.046c-0.209,0.028-0.373,0.066-0.488,0.115l-0.055,0.007l0.008-0.005v18.312
		c0-0.016-0.008-0.034-0.02-0.05c0.002,0.003,0.039,0.019,0.111,0.046c0.139,0.052,0.336,0.092,0.594,0.121
		c0.279,0.032,0.643,0.048,1.088,0.048c0.443,0,0.805-0.016,1.088-0.048c0.254-0.029,0.451-0.069,0.59-0.121
		c0.072-0.027,0.109-0.042,0.113-0.046c-0.014,0.017-0.02,0.034-0.02,0.05V56.312l0.129-0.179c0.699-0.96,1.357-1.697,1.977-2.209
		c0.686-0.568,1.387-0.853,2.1-0.853c0.555,0,1.045,0.125,1.475,0.376c0.432,0.252,0.781,0.607,1.053,1.066
		c0.25,0.427,0.438,0.93,0.561,1.511c0.117,0.555,0.176,1.165,0.176,1.831v10.859c0-0.016-0.008-0.034-0.02-0.05
		c0.002,0.003,0.041,0.019,0.111,0.046c0.139,0.052,0.338,0.092,0.592,0.121c0.283,0.032,0.645,0.048,1.088,0.048
		c0.434,0,0.789-0.016,1.07-0.048c0.256-0.029,0.453-0.069,0.592-0.121c0.072-0.027,0.109-0.042,0.111-0.046
		c-0.012,0.017-0.02,0.034-0.02,0.05V56.309l0.135-0.18c0.709-0.959,1.373-1.693,1.99-2.205c0.686-0.568,1.379-0.853,2.082-0.853
		c0.568,0,1.063,0.126,1.486,0.378c0.422,0.251,0.77,0.603,1.043,1.056c0.262,0.429,0.453,0.935,0.576,1.519
		c0.117,0.555,0.176,1.165,0.176,1.831v10.859c0-0.006-0.004-0.016-0.014-0.029l0.088,0.024c0.139,0.052,0.336,0.092,0.592,0.121
		c0.281,0.032,0.648,0.048,1.105,0.048c0.445,0,0.809-0.016,1.088-0.048c0.256-0.029,0.447-0.068,0.578-0.119
		c0.068-0.027,0.104-0.043,0.107-0.048C159.729,68.68,159.724,68.698,159.724,68.714L159.724,68.714z M160.931,68.714
		c0,0.291-0.082,0.547-0.246,0.77c-0.146,0.2-0.361,0.355-0.645,0.465c-0.223,0.086-0.508,0.149-0.857,0.188
		c-0.324,0.037-0.729,0.055-1.215,0.055c-0.498,0-0.908-0.019-1.23-0.055c-0.348-0.039-0.635-0.101-0.859-0.186
		c-0.303-0.113-0.525-0.276-0.668-0.49c-0.146-0.218-0.221-0.467-0.221-0.748V57.854c0-0.566-0.049-1.078-0.145-1.537
		c-0.092-0.429-0.227-0.792-0.406-1.088c-0.164-0.272-0.371-0.481-0.615-0.627c-0.244-0.145-0.547-0.217-0.908-0.217
		c-0.43,0-0.881,0.195-1.352,0.584c-0.539,0.447-1.133,1.108-1.781,1.984l-0.469-0.413h0.602v12.173c0,0.291-0.08,0.547-0.244,0.77
		c-0.148,0.202-0.369,0.357-0.662,0.467c-0.225,0.085-0.512,0.147-0.859,0.186c-0.322,0.037-0.721,0.055-1.195,0.055
		c-0.484,0-0.891-0.019-1.213-0.055c-0.348-0.039-0.635-0.101-0.859-0.186c-0.293-0.11-0.514-0.266-0.662-0.467
		c-0.162-0.223-0.244-0.479-0.244-0.77V57.854c0-0.566-0.049-1.078-0.146-1.537c-0.09-0.432-0.223-0.797-0.4-1.096
		c-0.156-0.267-0.359-0.473-0.607-0.618c-0.25-0.146-0.551-0.22-0.902-0.22c-0.443,0-0.898,0.195-1.369,0.584
		c-0.537,0.445-1.125,1.105-1.76,1.979l-0.473-0.408h0.604v12.173c0,0.291-0.082,0.547-0.244,0.77
		c-0.148,0.202-0.369,0.357-0.662,0.467c-0.227,0.085-0.514,0.147-0.861,0.186c-0.322,0.037-0.727,0.055-1.211,0.055
		c-0.488,0-0.893-0.019-1.215-0.055c-0.348-0.039-0.635-0.101-0.859-0.186c-0.293-0.11-0.514-0.266-0.66-0.467
		c-0.166-0.223-0.246-0.479-0.246-0.77V50.402c0-0.269,0.064-0.51,0.195-0.723c0.133-0.219,0.342-0.387,0.625-0.506
		c0.209-0.087,0.469-0.152,0.775-0.192c0.281-0.037,0.629-0.056,1.045-0.056c0.426,0,0.781,0.019,1.07,0.056
		c0.322,0.042,0.582,0.109,0.781,0.204c0.254,0.12,0.445,0.285,0.574,0.495c0.129,0.213,0.195,0.454,0.195,0.723v2.115h-0.604
		l-0.443-0.446c0.975-1.148,1.953-2.013,2.936-2.594c1.014-0.601,2.076-0.901,3.184-0.901c0.744,0,1.418,0.086,2.02,0.257
		c0.613,0.174,1.162,0.426,1.646,0.756c0.49,0.331,0.912,0.729,1.268,1.194c0.348,0.455,0.641,0.962,0.877,1.521l-0.549,0.275
		l-0.441-0.448c0.521-0.612,1.037-1.139,1.543-1.583c0.516-0.451,1.027-0.82,1.533-1.107c0.514-0.291,1.029-0.507,1.545-0.649
		c0.521-0.144,1.051-0.215,1.592-0.215c1.213,0,2.244,0.228,3.096,0.683c0.855,0.458,1.549,1.083,2.078,1.876
		c0.52,0.777,0.891,1.681,1.109,2.712c0.211,0.994,0.318,2.042,0.318,3.146V68.714L160.931,68.714z M124.173,60.934h-1.811
		c-0.767,0-1.421,0.062-1.961,0.185c-0.54,0.123-0.98,0.308-1.319,0.554c-0.34,0.246-0.588,0.544-0.746,0.893
		c-0.156,0.349-0.235,0.749-0.235,1.201c0,0.767,0.224,1.369,0.669,1.807c0.447,0.438,1.066,0.657,1.858,0.657
		c0.666,0,1.278-0.184,1.839-0.554c0.559-0.37,1.128-0.91,1.707-1.622V60.934z M128.831,68.776c0,0.191-0.063,0.342-0.189,0.451
		c-0.125,0.11-0.322,0.188-0.594,0.236c-0.27,0.048-0.668,0.072-1.197,0.072c-0.566,0-0.979-0.024-1.234-0.072
		c-0.258-0.048-0.441-0.126-0.547-0.236c-0.107-0.109-0.162-0.26-0.162-0.451v-1.458c-0.691,0.807-1.48,1.437-2.367,1.889
		c-0.885,0.452-1.869,0.677-2.951,0.677c-0.893,0-1.713-0.126-2.461-0.379c-0.748-0.253-1.395-0.63-1.942-1.13
		c-0.546-0.499-0.971-1.119-1.272-1.857s-0.453-1.602-0.453-2.586c0-1.067,0.191-1.995,0.576-2.782
		c0.383-0.787,0.955-1.437,1.716-1.95s1.706-0.893,2.839-1.139c1.131-0.247,2.445-0.37,3.941-0.37h1.64v-1.108
		c0-0.575-0.053-1.079-0.16-1.509c-0.107-0.431-0.283-0.791-0.529-1.078c-0.244-0.287-0.571-0.5-0.98-0.636
		c-0.408-0.137-0.914-0.205-1.518-0.205c-0.793,0-1.5,0.096-2.122,0.287c-0.622,0.192-1.173,0.404-1.649,0.637
		c-0.479,0.232-0.877,0.444-1.199,0.636c-0.32,0.192-0.58,0.288-0.781,0.288c-0.139,0-0.262-0.048-0.368-0.144
		c-0.107-0.096-0.194-0.233-0.265-0.411c-0.068-0.178-0.122-0.397-0.16-0.657c-0.037-0.26-0.057-0.547-0.057-0.862
		c0-0.424,0.031-0.759,0.095-1.006c0.063-0.246,0.183-0.469,0.358-0.667c0.176-0.198,0.484-0.417,0.924-0.656
		c0.44-0.24,0.955-0.462,1.547-0.667c0.591-0.205,1.235-0.373,1.934-0.503c0.697-0.129,1.417-0.195,2.158-0.195
		c1.32,0,2.449,0.14,3.386,0.421c0.936,0.28,1.707,0.711,2.311,1.293s1.043,1.331,1.318,2.248c0.277,0.917,0.416,2.005,0.416,3.264
		V68.776z M124.776,60.276v4.026l-0.152,0.187c-0.619,0.762-1.233,1.344-1.845,1.749c-0.655,0.433-1.373,0.649-2.151,0.649
		c-0.946,0-1.7-0.275-2.263-0.826c-0.578-0.568-0.868-1.333-0.868-2.294c0-0.553,0.099-1.05,0.298-1.49
		c0.205-0.456,0.521-0.839,0.951-1.151c0.404-0.293,0.915-0.51,1.531-0.65c0.582-0.132,1.276-0.199,2.085-0.199h1.811H124.776z
		 M124.173,61.59h-1.811c-0.726,0-1.337,0.057-1.837,0.171c-0.465,0.106-0.834,0.259-1.109,0.458
		c-0.249,0.18-0.429,0.392-0.538,0.635c-0.116,0.258-0.174,0.563-0.174,0.912c0,0.572,0.157,1.011,0.47,1.319
		c0.332,0.325,0.816,0.488,1.454,0.488c0.554,0,1.063-0.153,1.526-0.459c0.506-0.335,1.029-0.833,1.566-1.496l0.453,0.436h-0.604
		v-3.121h0.604V61.59z M128.228,68.776V56.458c0-1.189-0.129-2.208-0.385-3.059c-0.242-0.804-0.625-1.458-1.146-1.96
		c-0.535-0.515-1.225-0.898-2.07-1.152c-0.884-0.265-1.96-0.398-3.226-0.398c-0.707,0-1.393,0.062-2.057,0.186
		c-0.67,0.125-1.287,0.286-1.852,0.481c-0.562,0.195-1.049,0.405-1.46,0.629c-0.378,0.206-0.632,0.381-0.761,0.525
		c-0.104,0.119-0.175,0.248-0.211,0.387c-0.048,0.189-0.072,0.466-0.072,0.83c0,0.28,0.018,0.534,0.049,0.76
		c0.031,0.207,0.07,0.375,0.121,0.503c0.031,0.079,0.061,0.132,0.092,0.16c-0.005-0.004-0.01-0.006-0.016-0.006
		c0.098,0,0.262-0.069,0.492-0.207c0.334-0.2,0.748-0.42,1.241-0.66c0.505-0.246,1.082-0.469,1.731-0.669
		c0.677-0.208,1.439-0.312,2.287-0.312c0.664,0,1.229,0.078,1.695,0.234c0.512,0.171,0.927,0.444,1.246,0.818
		c0.313,0.366,0.535,0.818,0.668,1.353c0.121,0.487,0.182,1.047,0.182,1.681v1.765h-2.244c-1.457,0-2.731,0.119-3.824,0.357
		c-1.061,0.23-1.939,0.582-2.639,1.053c-0.668,0.451-1.168,1.018-1.501,1.7c-0.337,0.691-0.505,1.516-0.505,2.474
		c0,0.892,0.134,1.666,0.4,2.319c0.264,0.647,0.635,1.188,1.109,1.622c0.485,0.443,1.063,0.778,1.734,1.005
		c0.689,0.233,1.45,0.35,2.281,0.35c0.992,0,1.891-0.205,2.696-0.615c0.815-0.416,1.542-0.997,2.18-1.742l1.045-1.22v3.125
		l-0.029-0.027c0.02,0.02,0.098,0.042,0.236,0.067c0.223,0.042,0.602,0.063,1.133,0.063c0.496,0,0.863-0.021,1.102-0.063
		c0.166-0.03,0.27-0.063,0.313-0.101C128.239,68.736,128.228,68.757,128.228,68.776z M129.435,68.776
		c0,0.402-0.139,0.724-0.416,0.964c-0.207,0.182-0.498,0.305-0.873,0.372c-0.303,0.053-0.734,0.08-1.295,0.08
		c-0.6,0-1.045-0.027-1.338-0.082c-0.377-0.07-0.662-0.205-0.857-0.405c-0.234-0.239-0.352-0.549-0.352-0.93v-1.458h0.604
		l0.441,0.448c-0.744,0.87-1.594,1.548-2.551,2.036c-0.968,0.493-2.037,0.739-3.208,0.739c-0.953,0-1.834-0.136-2.64-0.409
		c-0.825-0.28-1.543-0.698-2.151-1.253c-0.619-0.565-1.097-1.263-1.438-2.094c-0.336-0.824-0.504-1.775-0.504-2.854
		c0-1.177,0.216-2.207,0.646-3.09c0.434-0.891,1.078-1.625,1.931-2.201c0.823-0.555,1.835-0.963,3.038-1.225
		c1.17-0.255,2.523-0.382,4.061-0.382h1.64v0.657h-0.604v-1.108c0-0.518-0.046-0.963-0.139-1.338
		c-0.081-0.326-0.211-0.594-0.388-0.802c-0.172-0.201-0.411-0.354-0.717-0.456c-0.35-0.118-0.797-0.176-1.34-0.176
		c-0.736,0-1.389,0.087-1.958,0.262c-0.595,0.183-1.116,0.384-1.567,0.604c-0.463,0.226-0.848,0.43-1.154,0.613
		c-0.41,0.246-0.768,0.369-1.072,0.369c-0.283,0-0.533-0.099-0.752-0.294c-0.184-0.164-0.328-0.385-0.436-0.662
		c-0.089-0.228-0.156-0.498-0.201-0.811c-0.043-0.294-0.064-0.615-0.064-0.965c0-0.484,0.039-0.878,0.117-1.182
		c0.09-0.353,0.258-0.669,0.506-0.948c0.223-0.252,0.586-0.515,1.088-0.788c0.468-0.254,1.012-0.49,1.633-0.706
		c0.617-0.214,1.289-0.389,2.016-0.525c0.73-0.136,1.484-0.204,2.26-0.204c1.375,0,2.556,0.148,3.546,0.445
		c1.025,0.308,1.877,0.785,2.549,1.435c0.686,0.66,1.184,1.505,1.494,2.535c0.297,0.984,0.445,2.14,0.445,3.469V68.776z
		 M110.123,44.203c0,1.04-0.195,1.759-0.584,2.155c-0.391,0.397-1.113,0.596-2.17,0.596c-1.068,0-1.788-0.191-2.159-0.575
		c-0.37-0.383-0.556-1.074-0.556-2.073c0-1.041,0.191-1.762,0.574-2.166c0.384-0.404,1.11-0.606,2.179-0.606
		c1.056,0,1.772,0.195,2.149,0.585C109.933,42.509,110.123,43.204,110.123,44.203z M109.764,68.714c0,0.137-0.038,0.257-0.112,0.359
		c-0.076,0.103-0.205,0.188-0.388,0.257c-0.183,0.068-0.425,0.12-0.726,0.154c-0.303,0.034-0.686,0.051-1.15,0.051
		s-0.85-0.017-1.15-0.051c-0.303-0.034-0.544-0.085-0.727-0.154c-0.183-0.069-0.311-0.154-0.387-0.257
		c-0.075-0.103-0.113-0.222-0.113-0.359V50.443c0-0.137,0.038-0.256,0.113-0.359c0.076-0.103,0.204-0.191,0.387-0.267
		c0.183-0.075,0.424-0.133,0.727-0.174c0.301-0.041,0.686-0.061,1.15-0.061s0.848,0.021,1.15,0.061
		c0.301,0.042,0.543,0.1,0.726,0.174c0.183,0.076,0.312,0.165,0.388,0.267c0.074,0.103,0.112,0.223,0.112,0.359V68.714z
		 M109.519,44.203c0-0.811-0.126-1.347-0.379-1.607c-0.26-0.27-0.838-0.404-1.733-0.404c-0.906,0-1.492,0.14-1.759,0.42
		c-0.261,0.275-0.391,0.84-0.391,1.694c0,0.811,0.123,1.343,0.367,1.597c0.256,0.264,0.836,0.395,1.744,0.395
		c0.897,0,1.483-0.14,1.757-0.418C109.388,45.611,109.519,45.053,109.519,44.203z M110.726,44.203c0,1.23-0.259,2.108-0.775,2.635
		c-0.506,0.516-1.367,0.773-2.582,0.773c-1.229,0-2.087-0.252-2.574-0.755c-0.496-0.513-0.744-1.363-0.744-2.55
		c0-1.226,0.252-2.105,0.758-2.638c0.501-0.527,1.367-0.79,2.599-0.79c1.217,0,2.071,0.255,2.565,0.766
		C110.475,42.162,110.726,43.016,110.726,44.203z M109.161,68.714V50.443c0,0.017,0.007,0.034,0.019,0.051
		c-0.006-0.009-0.049-0.03-0.129-0.063c-0.137-0.057-0.332-0.103-0.587-0.137c-0.276-0.038-0.636-0.057-1.075-0.057
		c-0.44,0-0.799,0.019-1.076,0.057c-0.254,0.034-0.449,0.08-0.586,0.137c-0.08,0.033-0.123,0.054-0.13,0.063
		c0.013-0.017,0.019-0.034,0.019-0.051v18.271c0-0.016-0.006-0.034-0.019-0.05c0.003,0.003,0.04,0.019,0.112,0.046
		c0.139,0.052,0.336,0.092,0.592,0.121c0.28,0.032,0.643,0.048,1.088,0.048c0.443,0,0.807-0.016,1.088-0.048
		c0.256-0.029,0.453-0.069,0.592-0.121c0.072-0.027,0.109-0.042,0.111-0.046C109.167,68.68,109.161,68.698,109.161,68.714z
		 M110.368,68.714c0,0.291-0.081,0.547-0.245,0.77c-0.148,0.202-0.369,0.357-0.661,0.467c-0.227,0.085-0.513,0.147-0.86,0.186
		c-0.322,0.037-0.728,0.055-1.213,0.055c-0.486,0-0.891-0.019-1.213-0.055c-0.348-0.039-0.635-0.101-0.86-0.186
		c-0.293-0.11-0.513-0.266-0.661-0.467c-0.164-0.223-0.246-0.479-0.246-0.77V50.443c0-0.291,0.082-0.547,0.246-0.77
		c0.145-0.196,0.358-0.353,0.644-0.471c0.228-0.094,0.516-0.165,0.866-0.212c0.326-0.045,0.734-0.067,1.225-0.067
		s0.898,0.022,1.225,0.067c0.35,0.047,0.639,0.118,0.865,0.212c0.285,0.118,0.5,0.274,0.645,0.471
		c0.164,0.223,0.245,0.479,0.245,0.77V68.714z M102.372,67.154c0,0.411-0.017,0.756-0.048,1.037
		c-0.031,0.28-0.078,0.513-0.141,0.698c-0.063,0.184-0.143,0.318-0.236,0.4s-0.204,0.123-0.33,0.123H90.433
		c-0.414,0-0.764-0.133-1.047-0.4c-0.283-0.267-0.424-0.702-0.424-1.304V43.586c0-0.137,0.041-0.26,0.122-0.369
		c0.082-0.11,0.218-0.199,0.405-0.267c0.189-0.068,0.443-0.123,0.765-0.165c0.32-0.041,0.72-0.061,1.197-0.061
		c0.49,0,0.893,0.021,1.207,0.061c0.314,0.042,0.565,0.096,0.755,0.165c0.188,0.068,0.323,0.157,0.404,0.267
		c0.082,0.109,0.123,0.232,0.123,0.369v21.371h7.676c0.126,0,0.236,0.038,0.33,0.113c0.094,0.075,0.173,0.198,0.236,0.369
		c0.063,0.171,0.109,0.396,0.141,0.678C102.355,66.398,102.372,66.743,102.372,67.154z M101.768,67.154
		c0-0.384-0.015-0.703-0.043-0.957c-0.024-0.225-0.06-0.396-0.103-0.513c-0.021-0.055-0.031-0.083-0.033-0.084
		c0.012,0.01,0.021,0.014,0.027,0.014h-8.279V43.586c0,0.019,0.004,0.034,0.013,0.045c-0.008-0.011-0.051-0.029-0.128-0.058
		c-0.15-0.054-0.361-0.1-0.636-0.136c-0.29-0.038-0.669-0.057-1.135-0.057c-0.454,0-0.829,0.019-1.127,0.057
		c-0.28,0.036-0.494,0.081-0.644,0.135c-0.077,0.028-0.12,0.047-0.128,0.058c0.009-0.011,0.013-0.026,0.013-0.045v24.122
		c0,0.402,0.072,0.671,0.216,0.807c0.169,0.16,0.387,0.24,0.651,0.24h11.184c-0.016,0-0.031,0.007-0.047,0.021
		c0.007-0.006,0.022-0.045,0.047-0.115c0.047-0.137,0.082-0.319,0.108-0.549C101.753,67.857,101.768,67.538,101.768,67.154z
		 M102.975,67.154c0,0.437-0.018,0.81-0.052,1.117c-0.037,0.331-0.096,0.613-0.175,0.847c-0.102,0.298-0.243,0.526-0.425,0.685
		c-0.205,0.178-0.439,0.267-0.707,0.267H90.433c-0.564,0-1.045-0.187-1.441-0.561c-0.422-0.398-0.633-0.998-0.633-1.8V43.586
		c0-0.292,0.086-0.553,0.258-0.784c0.155-0.208,0.383-0.367,0.684-0.476c0.227-0.082,0.521-0.146,0.883-0.193
		c0.345-0.044,0.768-0.066,1.269-0.066c0.515,0,0.94,0.021,1.278,0.066c0.355,0.046,0.646,0.111,0.873,0.193
		c0.301,0.109,0.528,0.268,0.684,0.476c0.172,0.23,0.258,0.492,0.258,0.784v21.371h-0.604V64.3h7.676
		c0.258,0,0.486,0.081,0.688,0.24c0.188,0.149,0.333,0.368,0.439,0.656c0.082,0.224,0.143,0.504,0.18,0.842
		C102.958,66.345,102.975,66.717,102.975,67.154z"/>
</g>
<text transform="matrix(1 0 0 1 234.0518 48.1372)" font-family="'Arial-BoldMT'" font-size="7.5758">TM</text>
</svg>
